<?xml version="1.0" encoding="UTF-8" standalone="no"?>

<svg
   fill="#ffffff"
   height="64px"
   width="64px"
   version="1.1"
   viewBox="0 0 512 512"
   xml:space="preserve"
   stroke="#ffffff"
   xmlns="http://www.w3.org/2000/svg"
   xmlns:svg="http://www.w3.org/2000/svg"><defs
   pagecolor="#000000"
   bordercolor="#000000"
   borderopacity="0.25"
    />

<polygon
   points="130.988,430.226 115.315,430.226 115.315,512 396.685,512 396.685,430.226 381.012,430.226 365.338,430.226 146.662,430.226 "
   id="polygon1"
   transform="matrix(1.0001129,0,0,0.895256,-0.0289032,0.6121967)"
   style="opacity:0.75" />





<path
   style="stroke-width:0.888721"
   d="m 332.57812,174.75 c -2.09493,2.6746 -3.59374,4.65625 -3.59374,4.65625 l -0.45313,-1.125 c 0,0 1.47097,-1.30398 4.04687,-3.53125 z"
   id="path8" /><path
   style="stroke-width:0.888721"
   d="m 256,42.765625 c -61.66285,0 -115.90378,31.591205 -135.14062,76.781255 19.57741,13.10548 44.42568,43.685 53.39062,55.125 2.6237,2.268 4.14062,3.60937 4.14062,3.60937 l -0.45312,1.125 c 0,0 -1.55227,-2.00964 -3.6875,-4.73437 -10.92286,-9.44205 -41.32711,-35.21149 -64.40625,-49.75 -22.244806,3.69224 -42.65255,12.47455 -58.890625,25.5625 -21.362991,17.21968 -33.125,39.96882 -33.125,64.07812 0,47.07125 41.695098,84.80649 97.453125,90.8125 v 52.35938 h 15.67187 15.6875 16.34376 V 315.375 h 31.34374 v 42.35938 h 46 v -90.70313 h 31.34376 v 90.70313 h 46.85937 V 315.375 h 31.35937 v 42.35938 h 15.46876 15.6875 15.67187 V 305.375 c 55.75803,-6.0068 97.45313,-43.74125 97.45313,-90.8125 9.9e-4,-24.1093 -11.77302,-46.85845 -33.125,-64.07812 C 448.88593,140.68262 434.3563,133.3472 418.5,128.70312 c -2.51591,-0.11535 -5.45558,-0.97522 -8.46875,-2.20312 -3.95458,-0.88982 -7.98181,-1.58557 -12.0625,-2.14062 -23.20953,14.44563 -54.3165,40.82574 -65.34375,50.35937 9.56111,-12.20377 37.43639,-46.49927 57.45312,-57.65625 C 369.93931,73.196849 316.53315,42.765625 256,42.765625 Z"
   id="path1" /></svg>
