<?xml version="1.0" encoding="UTF-8" standalone="no"?>
<svg
   fill="#ffffff"
   height="64px"
   width="64px"
   version="1.1"
   viewBox="0 0 512 512"
   xml:space="preserve"
   stroke="#ffffff"
   xmlns="http://www.w3.org/2000/svg"
   xmlns:svg="http://www.w3.org/2000/svg"><defs
   id="namedview3"
   pagecolor="#000000"
   bordercolor="#000000"
   borderopacity="0.25"
   />

<path
   d="M 461.0469,150.48134 C 442.57958,135.59662 418.72901,126.27333 392.90398,123.68252 375.31387,76.272522 319.54484,42.765711 256,42.765711 c -63.54484,0 -119.31387,33.506811 -136.90298,80.916809 -25.825034,2.59081 -49.675605,11.9141 -68.142919,26.79882 -21.362991,17.21968 -33.120737,39.97554 -33.120737,64.08484 0,47.07125 41.690739,84.80342 97.448766,90.80943 v 52.36026 H 396.71687 V 305.3764 c 55.75803,-6.0068 97.44876,-43.73818 97.44876,-90.80943 10e-4,-24.1093 -11.76674,-46.86595 -33.11873,-64.08563 z"
   id="path1"
   style="display:inline;stroke-width:0.888721"/><path
   d="m 41.559379,-4.2744924 c 0,6.7199582 -5.447541,12.1675002 -12.1675,12.1675002 -6.719928,0 -12.1675,-5.447542 -12.1675,-12.1675002 0,-6.7199276 5.447572,-12.1674996 12.1675,-12.1674996 4.708671,0 8.792692,2.674735 10.815539,6.5877577 m -6.759655,0.1719572 h 6.759655 v -0.1719572 m 0,-6.5877577 v 6.5877577"
   stroke="#ffffff"
   stroke-width="3.04188"
   stroke-linecap="round"
   stroke-linejoin="round"
   id="path1-0"
   style="fill:none;stroke:#000000;stroke-opacity:1"
   transform="matrix(8,0,0,8,16,256)" /><polygon
   points="130.988,430.226 115.315,430.226 115.315,512 396.685,512 396.685,430.226 381.012,430.226 365.338,430.226 146.662,430.226 "
   id="polygon1"
   transform="matrix(1.0001129,0,0,0.895256,-0.0289032,0.6121967)"
   style="opacity:0.75" />





</svg>
